<svg width="32" height="32" xmlns="http://www.w3.org/2000/svg">
 <title/>

 <g>
  <title>background</title>
  <rect fill="none" id="canvas_background" height="402" width="582" y="-1" x="-1"/>
 </g>
 <g>
  <title>Layer 1</title>
  <path fill="#ffffff" id="svg_1" d="m28.71,6.29l-6,-6a1,1 0 0 0 -0.71,-0.29l-16,0a3,3 0 0 0 -3,3l0,26a3,3 0 0 0 3,3l20,0a3,3 0 0 0 3,-3l0,-22a1,1 0 0 0 -0.29,-0.71zm-1.71,22.71a1,1 0 0 1 -1,1l-20,0a1,1 0 0 1 -1,-1l0,-26a1,1 0 0 1 1,-1l15,0l0,4a2,2 0 0 0 2,2l4,0l0,21z"/>
  <rect fill="#ffffff" id="svg_2" y="20" x="7" width="18" height="2"/>
  <rect fill="#ffffff" id="svg_3" y="25" x="7" width="18" height="2"/>
  <path fill="#ffffff" id="svg_4" d="m7,12l0,4a1,1 0 0 0 1,1l16,0a1,1 0 0 0 1,-1l0,-4a1,1 0 0 0 -1,-1l-16,0a1,1 0 0 0 -1,1zm2,1l14,0l0,2l-14,0l0,-2z"/>
 </g>
</svg>