<svg width="32" height="32" xmlns="http://www.w3.org/2000/svg">
 <title/>

 <g>
  <title>background</title>
  <rect fill="none" id="canvas_background" height="402" width="582" y="-1" x="-1"/>
 </g>
 <g>
  <title>Layer 1</title>
  <path fill="#ffffff" id="svg_1" d="m25,14l-2,0l-0.25,0a1.91,1.91 0 0 0 -1.75,-1l-2,0l0,-6a2,2 0 0 0 -2,-2l-2,0a2.09,2.09 0 0 0 -1,0.26a2,2 0 0 0 -1,-0.26l-2,0a2,2 0 0 0 -2,2l0,7l-2,0a2,2 0 0 0 -2,2l0,9c0,1.08 1.29,3.21 2,4.3l0,2.7l2,0l0,-3a1,1 0 0 0 -0.17,-0.55a14.3,14.3 0 0 1 -1.83,-3.45l0,-9l2,0l0,4l2,0l0,-13l2,0l0,11l2,0l0,-11l2,0l0,14l2,0l0,-6l2,0l0.24,0a2,2 0 0 0 -0.24,1l0,6l2,0l0,-6l2,0l0,9a3.77,3.77 0 0 1 -1.45,1.15a1,1 0 0 0 -0.55,0.85l0,5l2,0l0,-4.41c0.81,-0.49 2,-1.42 2,-2.59l0,-9a2,2 0 0 0 -2,-2z"/>
  <path fill="#ffffff" id="svg_2" d="m14,2a7,7 0 0 1 7,7l2,0a9,9 0 0 0 -18,0l2,0a7,7 0 0 1 7,-7z"/>
 </g>
</svg>