<svg width="48" height="48" xmlns="http://www.w3.org/2000/svg">
 <title/>

 <g>
  <title>background</title>
  <rect fill="none" id="canvas_background" height="402" width="582" y="-1" x="-1"/>
 </g>
 <g>
  <title>Layer 1</title>
  <path fill="#ffffff" id="svg_1" d="m47.71,12.29l-12,-12a1,1 0 0 0 -0.71,-0.29l-30,0a5,5 0 0 0 -5,5l0,38a5,5 0 0 0 5,5l38,0a5,5 0 0 0 5,-5l0,-30a1,1 0 0 0 -0.29,-0.71zm-39.71,-10.29l26,0l0,10l-26,0l0,-10zm0,12l26,0l0,2l-26,0l0,-2zm31,32l-30,0l0,-19l30,0l0,19zm7,-22a3,3 0 0 1 -3,3l-2,0l0,0a2,2 0 0 0 -2,-2l-30,0a2,2 0 0 0 -2,2l0,19l-2,0a3,3 0 0 1 -3,-3l0,-38a3,3 0 0 1 3,-3l1,0l0,15a1,1 0 0 0 1,1l28,0a1,1 0 0 0 1,-1l0,-13.59l10,10l0,10.59z"/>
  <rect fill="#ffffff" id="svg_2" y="29" x="11" width="2" height="2"/>
  <rect fill="#ffffff" id="svg_3" y="29" x="35" width="2" height="2"/>
 </g>
</svg>