<svg width="48" height="48" xmlns="http://www.w3.org/2000/svg">
 <title/>

 <g>
  <title>background</title>
  <rect fill="none" id="canvas_background" height="402" width="582" y="-1" x="-1"/>
 </g>
 <g>
  <title>Layer 1</title>
  <path fill="#ffffff" id="svg_1" d="m46,19l-3.68,0a18.86,18.86 0 0 0 -1.83,-4.42l2.6,-2.58a2,2 0 0 0 0,-2.83l-4.24,-4.26a2,2 0 0 0 -2.83,0l-2.61,2.6a18.88,18.88 0 0 0 -4.41,-1.83l0,-3.68a2,2 0 0 0 -2,-2l-6,0a2,2 0 0 0 -2,2l0,3.68a18.88,18.88 0 0 0 -4.41,1.83l-2.59,-2.6a2,2 0 0 0 -2.83,0l-4.26,4.24a2,2 0 0 0 0,2.83l2.61,2.61a18.86,18.86 0 0 0 -1.84,4.41l-3.68,0a2,2 0 0 0 -2,2l0,6a2,2 0 0 0 2,2l3.68,0a18.86,18.86 0 0 0 1.83,4.42l-2.6,2.58a2,2 0 0 0 0,2.83l4.24,4.24a2,2 0 0 0 2.83,0l2.61,-2.61a18.88,18.88 0 0 0 4.41,1.86l0,3.68a2,2 0 0 0 2,2l6,0a2,2 0 0 0 2,-2l0,-3.68a18.88,18.88 0 0 0 4.41,-1.83l2.59,2.6a2,2 0 0 0 2.83,0l4.24,-4.24a2,2 0 0 0 0,-2.83l-2.61,-2.61a18.86,18.86 0 0 0 1.86,-4.41l3.68,0a2,2 0 0 0 2,-2l0,-6a2,2 0 0 0 -2,-2zm0,8l-4.46,0a1,1 0 0 0 -1,0.78a16.85,16.85 0 0 1 -2.16,5.22a1,1 0 0 0 0.14,1.24l3.16,3.16l-4.24,4.24l-3.16,-3.16a1,1 0 0 0 -1.28,-0.1a16.82,16.82 0 0 1 -5.26,2.18a1,1 0 0 0 -0.78,1l0,4.44l-5.96,0l0,-4.46a1,1 0 0 0 -0.78,-1a16.82,16.82 0 0 1 -5.22,-2.16a1,1 0 0 0 -1.24,0.14l-3.16,3.16l-4.28,-4.25l3.16,-3.16a1,1 0 0 0 0.14,-1.27a16.85,16.85 0 0 1 -2.18,-5.26a1,1 0 0 0 -1,-0.78l-4.44,0l0,-5.96l4.46,0a1,1 0 0 0 1,-0.78a16.85,16.85 0 0 1 2.16,-5.22a1,1 0 0 0 -0.14,-1.24l-3.16,-3.2l4.24,-4.24l3.16,3.16a1,1 0 0 0 1.28,0.14a16.82,16.82 0 0 1 5.26,-2.18a1,1 0 0 0 0.78,-1l0,-4.44l6,0l0,4.46a1,1 0 0 0 0.78,1a16.82,16.82 0 0 1 5.18,2.16a1,1 0 0 0 1.24,-0.14l3.16,-3.16l4.24,4.24l-3.16,3.16a1,1 0 0 0 -0.1,1.28a16.85,16.85 0 0 1 2.18,5.26a1,1 0 0 0 1,0.78l4.44,0l0,5.96z"/>
  <path fill="#ffffff" id="svg_2" d="m24,15a9,9 0 1 0 9,9a9,9 0 0 0 -9,-9zm0,16a7,7 0 1 1 7,-7a7,7 0 0 1 -7,7z"/>
 </g>
</svg>