<svg width="64" height="64" xmlns="http://www.w3.org/2000/svg">

 <g>
  <title>background</title>
  <rect fill="none" id="canvas_background" height="402" width="582" y="-1" x="-1"/>
 </g>
 <g>
  <title>Layer 1</title>
  <path fill="#ffffff" id="svg_1" d="m32,7.173c-13.689,0 -24.826,11.137 -24.826,24.826c0,5.613 1.828,10.909 5.285,15.314c4.743,6.046 11.866,9.514 19.542,9.514s14.799,-3.468 19.543,-9.515c3.456,-4.406 5.283,-9.702 5.283,-15.313c-0.001,-13.689 -11.138,-24.826 -24.827,-24.826zm9.525,23.37c-0.109,-2.41 -0.472,-4.68 -1.003,-6.784c3.066,-0.744 5.701,-1.81 7.858,-2.912c1.914,2.802 3.111,6.12 3.373,9.696l-10.228,0zm-9.695,21.279c-0.07,-0.001 -0.139,-0.005 -0.208,-0.006c-1.283,-1.658 -3.306,-4.707 -4.782,-8.936c1.611,-0.254 3.33,-0.411 5.161,-0.411c1.614,0 3.143,0.121 4.592,0.322c-1.504,4.123 -3.511,7.288 -4.763,9.031zm0.17,-12.353c-2.15,0 -4.151,0.204 -6.022,0.521c-0.488,-1.96 -0.833,-4.112 -0.94,-6.448l13.494,0c-0.121,2.252 -0.498,4.38 -1.025,6.349c-1.725,-0.264 -3.561,-0.422 -5.507,-0.422zm-19.752,-8.926c0.262,-3.576 1.459,-6.894 3.373,-9.696c2.034,1.039 4.504,2.048 7.36,2.785c-0.499,2.106 -0.834,4.414 -0.932,6.912l-9.801,0l0,-0.001zm12.789,0c0.099,-2.267 0.423,-4.363 0.887,-6.281c1.89,0.321 3.917,0.511 6.076,0.511c1.97,0 3.826,-0.162 5.572,-0.433c0.5,1.928 0.853,4.005 0.964,6.202l-13.499,0l0,0.001zm6.8,-18.362c1.277,1.773 3.334,5.021 4.844,9.258c-1.476,0.209 -3.035,0.334 -4.682,0.334c-1.853,0 -3.597,-0.154 -5.233,-0.414c1.482,-4.338 3.552,-7.473 4.856,-9.167c0.073,-0.001 0.143,-0.01 0.215,-0.011zm14.605,6.278c-1.896,0.923 -4.16,1.796 -6.761,2.415c-1.168,-3.427 -2.681,-6.264 -3.985,-8.343c4.203,0.797 7.93,2.926 10.746,5.928zm-18.845,-5.776c-1.284,2.001 -2.711,4.708 -3.809,8.06c-2.382,-0.609 -4.466,-1.426 -6.23,-2.284c2.657,-2.832 6.125,-4.884 10.039,-5.776zm-15.36,20.86l9.814,0c0.107,2.564 0.465,4.925 0.99,7.073c-2.907,0.746 -5.359,1.747 -7.289,2.723c-2.042,-2.913 -3.246,-6.253 -3.515,-9.796zm5.455,12.175c1.685,-0.808 3.77,-1.608 6.172,-2.218c1.091,3.254 2.49,5.883 3.747,7.839c-3.774,-0.848 -7.21,-2.787 -9.919,-5.621zm17.997,5.762c1.277,-2.034 2.756,-4.796 3.916,-8.129c2.589,0.61 4.833,1.471 6.702,2.369c-2.876,3.006 -6.571,5.002 -10.618,5.76zm12.563,-8.147c-2.122,-1.072 -4.733,-2.126 -7.788,-2.862c0.556,-2.143 0.939,-4.462 1.057,-6.928l10.242,0c-0.269,3.54 -1.472,6.879 -3.511,9.79z"/>
 </g>
</svg>