<svg width="64" height="64" xmlns="http://www.w3.org/2000/svg">

 <g>
  <title>background</title>
  <rect fill="none" id="canvas_background" height="402" width="582" y="-1" x="-1"/>
 </g>
 <g>
  <title>Layer 1</title>
  <path fill="#ffffff" id="svg_2" d="m44.525,20.734c0,-6.919 -5.608,-12.527 -12.528,-12.527s-12.527,5.608 -12.527,12.527c0,9.913 12.527,24.581 12.527,24.581s12.528,-14.719 12.528,-24.581zm-18.706,-0.748c0,-3.413 2.767,-6.179 6.179,-6.179c3.412,0 6.179,2.766 6.179,6.179c0,3.413 -2.767,6.179 -6.179,6.179c-3.412,0 -6.179,-2.766 -6.179,-6.179z"/>
  <circle fill="#ffffff" id="svg_3" r="3.038" cy="19.986" cx="31.997"/>
  <path fill="#ffffff" id="svg_4" d="m39.08,40.958c-1.021,1.475 -1.979,2.761 -2.777,3.793c7.916,0.475 13.104,2.184 15.034,3.456c-2.261,1.491 -8.98,3.587 -19.338,3.587c-10.358,0 -17.077,-2.097 -19.338,-3.587c1.93,-1.271 7.114,-2.979 15.022,-3.455c-0.8,-1.032 -1.759,-2.317 -2.781,-3.792c-9.741,0.959 -16.816,3.841 -16.816,7.246c0,4.19 10.707,7.588 23.913,7.588c13.207,0 23.912,-3.397 23.912,-7.588c0.002,-3.407 -7.081,-6.29 -16.831,-7.248z"/>
 </g>
</svg>