<svg width="32" height="32" xmlns="http://www.w3.org/2000/svg">

 <g>
  <title>background</title>
  <rect fill="none" id="canvas_background" height="402" width="582" y="-1" x="-1"/>
 </g>
 <g>
  <title>Layer 1</title>
  <path id="svg_3" fill="#ffffff" d="m16,0.045766c-8.837,0 -16,7.163 -16,16c0,8.836 7.163,16 16,16s16,-7.164 16,-16c0,-8.837 -7.163,-16 -16,-16z"/>
  <path id="svg_5" fill="#333333" d="m4.905,13.267l0.436,2.236c0.111,0.57 0.223,1.174 0.313,1.8l0.022,0c0.112,-0.626 0.269,-1.252 0.402,-1.789l0.582,-2.247l1.342,0l0.547,2.18c0.146,0.615 0.291,1.23 0.403,1.856l0.022,0c0.078,-0.626 0.19,-1.241 0.313,-1.867l0.47,-2.169l1.666,0l-1.678,5.467l-1.598,0l-0.515,-1.924c-0.134,-0.537 -0.235,-1.029 -0.346,-1.699l-0.022,0c-0.101,0.682 -0.212,1.185 -0.358,1.699l-0.548,1.923l-1.598,0l-1.588,-5.467l1.733,0l0,0.001z"/>
  <path id="svg_6" fill="#333333" d="m13.608,13.267l0.436,2.236c0.111,0.57 0.223,1.174 0.313,1.8l0.022,0c0.112,-0.626 0.269,-1.252 0.402,-1.789l0.582,-2.247l1.342,0l0.547,2.18c0.146,0.615 0.291,1.23 0.403,1.856l0.022,0c0.078,-0.626 0.19,-1.241 0.313,-1.867l0.47,-2.169l1.666,0l-1.678,5.467l-1.598,0l-0.514,-1.923c-0.134,-0.537 -0.235,-1.029 -0.346,-1.699l-0.023,0c-0.101,0.682 -0.212,1.185 -0.358,1.699l-0.548,1.923l-1.598,0l-1.588,-5.467l1.733,0z"/>
  <path id="svg_7" fill="#333333" d="m22.31,13.267l0.436,2.236c0.111,0.57 0.223,1.174 0.313,1.8l0.022,0c0.112,-0.626 0.269,-1.252 0.402,-1.789l0.582,-2.247l1.342,0l0.547,2.18c0.146,0.615 0.291,1.23 0.403,1.856l0.022,0c0.078,-0.626 0.19,-1.241 0.313,-1.867l0.47,-2.169l1.666,0l-1.678,5.467l-1.598,0l-0.514,-1.923c-0.134,-0.537 -0.235,-1.029 -0.346,-1.699l-0.023,0c-0.101,0.682 -0.212,1.185 -0.358,1.699l-0.548,1.923l-1.598,0l-1.588,-5.467l1.733,0z"/>
 </g>
</svg>