<svg width="48" height="48" xmlns="http://www.w3.org/2000/svg">
 <title/>

 <g>
  <title>background</title>
  <rect fill="none" id="canvas_background" height="402" width="582" y="-1" x="-1"/>
 </g>
 <g>
  <title>Layer 1</title>
  <path fill="#ffffff" id="svg_1" d="m45,4l-15,0l0,-3a1,1 0 0 0 -1,-1l-10,0a1,1 0 0 0 -1,1l0,3l-15,0a3,3 0 0 0 -3,3l0,30a1,1 0 0 0 1,1l22,0l0,2l-1,0a1,1 0 0 0 -1,1l0,6a1,1 0 0 0 1,1l4,0a1,1 0 0 0 1,-1l0,-6a1,1 0 0 0 -1,-1l-1,0l0,-2l22,0a1,1 0 0 0 1,-1l0,-30a3,3 0 0 0 -3,-3zm-20,42l-2,0l0,-4l2,0l0,4zm21,-10l-44,0l0,-2l44,0l0,2zm0,-6l-44,0l0,-23a1,1 0 0 1 1,-1l22,0l0,-2l-5,0l0,-2l8,0l0,3a1,1 0 0 0 1,1l16,0a1,1 0 0 1 1,1l0,23z"/>
  <path fill="#ffffff" id="svg_2" d="m39,10l-6,0l0,2l3.59,0l-6,6l-14.59,0a1,1 0 0 0 -0.71,0.29l-8,8l1.41,1.41l7.71,-7.7l14.59,0a1,1 0 0 0 0.71,-0.29l6.29,-6.3l0,2.59l2,0l0,-5a1,1 0 0 0 -1,-1z"/>
 </g>
</svg>