<svg width="64" height="64" xmlns="http://www.w3.org/2000/svg">

 <g>
  <title>background</title>
  <rect fill="none" id="canvas_background" height="402" width="582" y="-1" x="-1"/>
 </g>
 <g>
  <title>Layer 1</title>
  <path fill="#ffffff" id="svg_2" d="m32,5.815c0,0 -10.073,7.816 -10.073,27.016c0,12.314 3.724,20.013 8.573,21.329l0,-12.394c0,-0.828 0.671,-1.5 1.5,-1.5s1.5,0.672 1.5,1.5l0,12.394c4.849,-1.315 8.573,-9.015 8.573,-21.329c0,-19.422 -10.073,-27.016 -10.073,-27.016zm-0.118,14.818c-1.729,0 -3.418,-0.155 -4.914,-0.438c1.465,-4.721 3.531,-7.901 5.051,-9.761c1.516,1.837 3.572,4.989 5.027,9.715c-1.554,0.314 -3.334,0.484 -5.164,0.484z"/>
  <path fill="#ffffff" id="svg_3" d="m19.224,41.319c-3.007,0 -5.444,2.081 -5.444,4.648l0,12.218l9.862,-7.296c-1.463,-2.496 -2.556,-5.737 -3.201,-9.57l-1.217,0z"/>
  <path fill="#ffffff" id="svg_4" d="m44.776,41.319l-1.216,0c-0.645,3.833 -1.738,7.074 -3.201,9.57l9.862,7.296l0,-12.218c-0.001,-2.567 -2.438,-4.648 -5.445,-4.648z"/>
 </g>
</svg>