<svg width="32" height="32" xmlns="http://www.w3.org/2000/svg">
 <title/>

 <g>
  <title>background</title>
  <rect fill="none" id="canvas_background" height="402" width="582" y="-1" x="-1"/>
 </g>
 <g>
  <title>Layer 1</title>
  <rect fill="#ffffff" id="svg_1" y="4" x="4" width="2" height="2"/>
  <rect fill="#ffffff" id="svg_2" y="4" x="26" width="2" height="2"/>
  <path fill="#ffffff" id="svg_3" d="m29,0l-26,0a3,3 0 0 0 -3,3l0,26a3,3 0 0 0 3,3l23,0a1,1 0 0 0 0.71,-0.29l5,-5a1,1 0 0 0 0.29,-0.71l0,-23a3,3 0 0 0 -3,-3zm1,25l-3,0a2,2 0 0 0 -2,2l0,3l-22,0a1,1 0 0 1 -1,-1l0,-19l28,0l0,15zm-20,-2l0,-17l12,0l0,2l-12,15zm28,2l-14,0l0,-20a1,1 0 0 0 -1,-1l-14,0a1,1 0 0 0 -1,1l0,3l-6,0l0,-5a1,1 0 0 1 1,-1l26,0a1,1 0 0 1 1,1l8,22z"/>
  <path fill="#ffffff" id="svg_4" d="m7.71,28.71l4.11,-4.11a7,7 0 1 0 -1.41,-1.41l-4.12,4.1l1.42,1.42zm8.29,-14.71a5,5 0 1 1 -5,5a5,5 0 0 1 5,-5z"/>
 </g>
</svg>